<svg width="30" height="30" viewBox="0 0 30 30" fill="none" xmlns="http://www.w3.org/2000/svg">
<circle cx="15" cy="15" r="15" fill="#FD06B2"/>
<g clip-path="url(#clip0_0_79)">
<path d="M15.9398 5.00122C16.6636 4.99844 17.3875 5.00572 18.1112 5.02304L18.3036 5.02999C18.5258 5.03792 18.745 5.04784 19.0099 5.05975C20.0653 5.10934 20.7855 5.27599 21.4173 5.521C22.072 5.77296 22.6235 6.11419 23.1751 6.66571C23.6793 7.1613 24.0696 7.76077 24.3188 8.42245C24.5638 9.05432 24.7304 9.77547 24.78 10.8309C24.7919 11.0948 24.8019 11.315 24.8098 11.5372L24.8157 11.7296C24.8334 12.4529 24.841 13.1765 24.8386 13.9L24.8396 14.64V15.9394C24.842 16.6633 24.8344 17.3872 24.8167 18.1108L24.8108 18.3033C24.8029 18.5255 24.7929 18.7447 24.781 19.0095C24.7314 20.065 24.5628 20.7851 24.3188 21.417C24.0704 22.0794 23.6801 22.6793 23.1751 23.1747C22.6791 23.6789 22.0793 24.0692 21.4173 24.3184C20.7855 24.5634 20.0653 24.7301 19.0099 24.7797C18.745 24.7916 18.5258 24.8015 18.3036 24.8095L18.1112 24.8154C17.3875 24.833 16.6637 24.8406 15.9398 24.8382L15.1998 24.8392H13.9013C13.1775 24.8417 12.4536 24.8341 11.73 24.8164L11.5375 24.8104C11.302 24.8019 11.0666 24.792 10.8312 24.7807C9.77582 24.7311 9.05566 24.5625 8.4228 24.3184C7.76085 24.0698 7.16127 23.6794 6.66605 23.1747C6.1612 22.679 5.77055 22.0792 5.52135 21.417C5.27633 20.7851 5.10969 20.065 5.06009 19.0095C5.04904 18.7742 5.03912 18.5387 5.03033 18.3033L5.02537 18.1108C5.00708 17.3872 4.99882 16.6633 5.00057 15.9394V13.9C4.9978 13.1765 5.00508 12.4529 5.0224 11.7296L5.02934 11.5372C5.03727 11.315 5.04719 11.0948 5.0591 10.8309C5.10869 9.77448 5.27534 9.05532 5.52035 8.42245C5.7697 7.76045 6.16112 7.16114 6.66705 6.6667C7.16192 6.16156 7.76113 5.77055 8.4228 5.521C9.05566 5.27599 9.77482 5.10934 10.8312 5.05975L11.5375 5.02999L11.73 5.02503C12.4533 5.00675 13.1768 4.99848 13.9003 5.00023L15.9398 5.00122ZM14.9201 9.96097C14.2629 9.95167 13.6104 10.0731 13.0006 10.3181C12.3908 10.5632 11.8357 10.927 11.3677 11.3884C10.8997 11.8499 10.5281 12.3997 10.2745 13.006C10.0208 13.6123 9.89018 14.263 9.89018 14.9202C9.89018 15.5774 10.0208 16.2281 10.2745 16.8344C10.5281 17.4407 10.8997 17.9906 11.3677 18.452C11.8357 18.9134 12.3908 19.2772 13.0006 19.5223C13.6104 19.7674 14.2629 19.8888 14.9201 19.8795C16.2355 19.8795 17.497 19.3569 18.4271 18.4268C19.3573 17.4967 19.8798 16.2351 19.8798 14.9197C19.8798 13.6043 19.3573 12.3428 18.4271 11.4127C17.497 10.4825 16.2355 9.96097 14.9201 9.96097ZM14.9201 11.9449C15.3154 11.9376 15.7081 12.0091 16.0755 12.1554C16.4428 12.3016 16.7773 12.5195 17.0595 12.7965C17.3416 13.0735 17.5658 13.4039 17.7188 13.7684C17.8718 14.133 17.9507 14.5243 17.9507 14.9197C17.9508 15.3151 17.8721 15.7065 17.7192 16.0711C17.5663 16.4357 17.3422 16.7662 17.0602 17.0432C16.7781 17.3203 16.4437 17.5383 16.0764 17.6847C15.7091 17.831 15.3164 17.9027 14.9211 17.8956C14.1318 17.8956 13.3749 17.582 12.8168 17.024C12.2587 16.4659 11.9452 15.709 11.9452 14.9197C11.9452 14.1305 12.2587 13.3736 12.8168 12.8155C13.3749 12.2574 14.1318 11.9439 14.9211 11.9439L14.9201 11.9449ZM20.1278 8.47304C19.8078 8.48585 19.5051 8.62198 19.2833 8.85293C19.0614 9.08388 18.9374 9.39172 18.9374 9.71199C18.9374 10.0323 19.0614 10.3401 19.2833 10.571C19.5051 10.802 19.8078 10.9381 20.1278 10.9509C20.4566 10.9509 20.772 10.8203 21.0046 10.5878C21.2371 10.3552 21.3677 10.0398 21.3677 9.711C21.3677 9.38214 21.2371 9.06676 21.0046 8.83423C20.772 8.60169 20.4566 8.47106 20.1278 8.47106V8.47304Z" fill="white"/>
</g>
<defs>
<clipPath id="clip0_0_79">
<rect width="18" height="18" fill="white" transform="translate(6 6)"/>
</clipPath>
</defs>
</svg>
